<svg width="812" height="401" viewBox="0 0 812 401" fill="none" xmlns="http://www.w3.org/2000/svg">
<rect x="51.5" y="0.5" width="482" height="187" rx="24.5" fill="#92B3FF" stroke="black"/>
<rect x="534.5" y="26.5" width="236" height="161" rx="49.5" fill="#92B3FF" stroke="black"/>
<path d="M212.44 144.02C211.647 144.02 210.343 143.963 208.53 143.85C206.717 143.737 204.847 143.623 202.92 143.51C200.993 143.397 199.123 143.283 197.31 143.17C195.497 143.057 194.193 143 193.4 143H183.37C182.577 143 181.273 143.057 179.46 143.17C177.647 143.283 175.777 143.397 173.85 143.51C171.923 143.623 170.053 143.737 168.24 143.85C166.427 143.963 165.123 144.02 164.33 144.02L163.99 143.34L164.5 136.88L165.18 136.2C166.993 136.2 168.693 136.143 170.28 136.03C171.867 135.803 173.227 135.293 174.36 134.5C175.38 133.707 176.173 132.687 176.74 131.44C177.307 130.193 177.873 127.983 178.44 124.81C178.553 124.017 178.61 123.11 178.61 122.09C178.723 120.957 178.78 119.597 178.78 118.01C178.893 116.423 178.95 114.497 178.95 112.23C178.95 109.963 178.95 107.13 178.95 103.73V90.13H128.63V100.33C128.63 104.41 128.63 107.753 128.63 110.36C128.63 112.853 128.63 114.95 128.63 116.65C128.743 118.35 128.8 119.823 128.8 121.07C128.913 122.203 129.027 123.45 129.14 124.81C129.367 127.983 129.877 130.193 130.67 131.44C131.463 132.687 132.313 133.707 133.22 134.5C134.24 135.293 135.543 135.803 137.13 136.03C138.83 136.143 140.587 136.2 142.4 136.2L143.08 136.88L143.59 143.34L143.25 144.02C142.457 144.02 141.153 143.963 139.34 143.85C137.527 143.737 135.657 143.623 133.73 143.51C131.803 143.397 129.933 143.283 128.12 143.17C126.307 143.057 125.003 143 124.21 143H114.18C113.387 143 112.083 143.057 110.27 143.17C108.457 143.283 106.587 143.397 104.66 143.51C102.733 143.623 100.863 143.737 99.05 143.85C97.2367 143.963 95.9333 144.02 95.14 144.02L94.8 143.34L95.31 136.88L96.16 136.2C97.9733 136.2 99.6733 136.143 101.26 136.03C102.847 135.803 104.15 135.293 105.17 134.5C106.077 133.707 106.927 132.687 107.72 131.44C108.627 130.193 109.193 127.983 109.42 124.81C109.42 124.017 109.42 123.11 109.42 122.09C109.533 120.957 109.59 119.597 109.59 118.01C109.703 116.423 109.76 114.497 109.76 112.23C109.76 109.963 109.76 107.13 109.76 103.73V76.02C109.76 72.0533 109.76 68.71 109.76 65.99C109.76 63.27 109.703 60.9467 109.59 59.02C109.59 57.0933 109.533 55.45 109.42 54.09C109.42 52.73 109.363 51.37 109.25 50.01C109.023 47.0633 108.513 44.91 107.72 43.55C106.927 42.19 106.077 41.1133 105.17 40.32C104.15 39.5267 102.847 39.0733 101.26 38.96C99.6733 38.7333 97.9733 38.62 96.16 38.62L95.31 37.94L94.8 31.48L95.14 30.8C95.9333 30.8 97.2367 30.8567 99.05 30.97C100.863 31.0833 102.733 31.1967 104.66 31.31C106.587 31.4233 108.457 31.5367 110.27 31.65C112.083 31.7633 113.387 31.82 114.18 31.82H124.21C125.003 31.82 126.307 31.7633 128.12 31.65C129.933 31.5367 131.803 31.4233 133.73 31.31C135.657 31.1967 137.527 31.0833 139.34 30.97C141.153 30.8567 142.457 30.8 143.25 30.8L143.59 31.48L143.08 37.94L142.4 38.62C140.813 38.62 139.113 38.7333 137.3 38.96C135.6 39.0733 134.24 39.5267 133.22 40.32C132.313 41.1133 131.407 42.1333 130.5 43.38C129.707 44.6267 129.253 46.8367 129.14 50.01C129.027 51.5967 128.913 53.07 128.8 54.43C128.8 55.79 128.743 57.3767 128.63 59.19C128.63 61.0033 128.63 63.2133 128.63 65.82C128.63 68.4267 128.63 71.77 128.63 75.85V77.55H178.95V76.02C178.95 72.0533 178.95 68.71 178.95 65.99C178.95 63.27 178.893 60.9467 178.78 59.02C178.78 57.0933 178.723 55.45 178.61 54.09C178.61 52.73 178.553 51.37 178.44 50.01C178.213 46.8367 177.703 44.6267 176.91 43.38C176.117 42.1333 175.267 41.1133 174.36 40.32C173.34 39.5267 171.98 39.0733 170.28 38.96C168.693 38.7333 166.993 38.62 165.18 38.62L164.5 37.94L163.99 31.48L164.33 30.8C165.123 30.8 166.427 30.8567 168.24 30.97C170.053 31.0833 171.923 31.1967 173.85 31.31C175.777 31.4233 177.647 31.5367 179.46 31.65C181.273 31.7633 182.577 31.82 183.37 31.82H193.4C194.193 31.82 195.497 31.7633 197.31 31.65C199.123 31.5367 200.993 31.4233 202.92 31.31C204.847 31.1967 206.717 31.0833 208.53 30.97C210.343 30.8567 211.647 30.8 212.44 30.8L212.78 31.48L212.27 37.94L211.42 38.62C209.607 38.62 207.85 38.7333 206.15 38.96C204.563 39.0733 203.317 39.5267 202.41 40.32C201.503 41.1133 200.653 42.1333 199.86 43.38C199.18 44.6267 198.613 46.8367 198.16 50.01C198.047 51.5967 197.933 53.07 197.82 54.43C197.82 55.79 197.82 57.3767 197.82 59.19C197.82 61.0033 197.82 63.2133 197.82 65.82C197.82 68.4267 197.82 71.77 197.82 75.85V100.33C197.82 104.41 197.82 107.753 197.82 110.36C197.82 112.853 197.82 114.95 197.82 116.65C197.82 118.35 197.82 119.823 197.82 121.07C197.933 122.203 198.047 123.45 198.16 124.81C198.387 127.983 198.897 130.193 199.69 131.44C200.597 132.687 201.503 133.707 202.41 134.5C203.43 135.293 204.733 135.803 206.32 136.03C207.907 136.143 209.607 136.2 211.42 136.2L212.27 136.88L212.78 143.34L212.44 144.02ZM295.23 99.65L291.15 102.71C285.03 102.71 278.967 102.767 272.96 102.88C267.067 102.993 261.003 103.05 254.77 103.05H240.83C240.717 103.843 240.66 104.637 240.66 105.43C240.66 106.11 240.66 106.79 240.66 107.47C240.66 110.417 241.17 113.363 242.19 116.31C243.21 119.257 244.797 121.92 246.95 124.3C249.217 126.567 252.05 128.437 255.45 129.91C258.85 131.27 262.987 131.95 267.86 131.95C271.373 131.95 275.057 131.497 278.91 130.59C282.877 129.57 286.56 128.267 289.96 126.68L292.85 127.87V133.99L291.15 135.86C288.43 138.013 284.407 140.053 279.08 141.98C273.867 143.907 268.2 144.87 262.08 144.87C256.073 144.87 250.577 143.907 245.59 141.98C240.717 139.94 236.467 137.107 232.84 133.48C229.327 129.853 226.55 125.547 224.51 120.56C222.583 115.573 221.62 110.02 221.62 103.9C221.62 97.6667 222.64 92 224.68 86.9C226.72 81.8 229.497 77.4367 233.01 73.81C236.637 70.1833 240.83 67.35 245.59 65.31C250.463 63.27 255.677 62.25 261.23 62.25C264.177 62.25 267.463 62.6467 271.09 63.44C274.83 64.2333 278.4 65.7633 281.8 68.03C285.2 70.1833 288.26 73.3 290.98 77.38C293.7 81.3467 295.57 86.6167 296.59 93.19L295.23 99.65ZM261.4 75C255.847 75 251.37 76.7 247.97 80.1C244.683 83.3867 242.587 87.24 241.68 91.66H250.18C254.147 91.66 258.057 91.6033 261.91 91.49C265.763 91.2633 269.673 91.15 273.64 91.15C275.113 91.15 276.19 90.7533 276.87 89.96C277.55 89.0533 277.89 88.1467 277.89 87.24C277.89 83.84 276.247 80.95 272.96 78.57C269.673 76.19 265.82 75 261.4 75ZM336.172 82.82C337.305 80.6667 338.552 78.4 339.912 76.02C341.385 73.64 343.029 71.43 344.842 69.39C346.655 67.35 348.695 65.65 350.962 64.29C353.342 62.93 356.005 62.25 358.952 62.25C359.859 62.25 360.935 62.3633 362.182 62.59C363.542 62.7033 364.845 62.93 366.092 63.27C367.452 63.61 368.755 64.0067 370.002 64.46C371.249 64.9133 372.212 65.4233 372.892 65.99L374.082 67.01L372.042 85.37H364.732C364.392 84.01 363.485 82.65 362.012 81.29C360.652 79.8167 358.499 79.08 355.552 79.08C352.945 79.08 350.565 79.76 348.412 81.12C346.259 82.3667 344.389 83.9533 342.802 85.88C341.215 87.8067 339.969 89.9033 339.062 92.17C338.155 94.3233 337.702 96.3067 337.702 98.12V109.85C337.702 114.157 337.702 117.387 337.702 119.54C337.815 121.693 337.929 123.563 338.042 125.15C338.269 127.643 338.552 129.683 338.892 131.27C339.345 132.743 340.025 133.877 340.932 134.67C341.385 135.123 342.065 135.52 342.972 135.86C343.992 136.087 345.012 136.257 346.032 136.37C347.052 136.483 348.015 136.54 348.922 136.54C349.942 136.54 350.735 136.54 351.302 136.54L352.152 137.39L352.492 143L352.152 143.68C351.472 143.68 350.339 143.623 348.752 143.51C347.165 143.397 345.465 143.283 343.652 143.17C341.839 143.17 340.139 143.113 338.552 143C336.965 143 335.832 143 335.152 143H324.272C323.479 143 322.232 143 320.532 143C318.945 143.113 317.245 143.17 315.432 143.17C313.619 143.283 311.862 143.397 310.162 143.51C308.575 143.623 307.385 143.68 306.592 143.68L306.422 143L306.762 137.22L307.272 136.54C309.199 136.54 311.012 136.483 312.712 136.37C314.412 136.143 315.715 135.577 316.622 134.67C317.529 133.877 318.152 132.857 318.492 131.61C318.945 130.363 319.285 128.21 319.512 125.15C319.625 123.79 319.682 121.977 319.682 119.71C319.682 117.443 319.682 114.27 319.682 110.19V97.78C319.682 95.4 319.682 93.4167 319.682 91.83C319.682 90.13 319.625 88.6567 319.512 87.41C319.512 86.1633 319.455 85.03 319.342 84.01C319.342 82.99 319.285 81.9133 319.172 80.78C318.945 79.6467 318.605 78.57 318.152 77.55C317.699 76.53 317.302 75.85 316.962 75.51C315.829 74.0367 314.412 73.1867 312.712 72.96C311.012 72.7333 309.255 72.62 307.442 72.62L306.762 71.94V66.16L307.442 65.65H310.502C312.995 65.65 316.225 65.65 320.192 65.65C324.159 65.5367 327.615 65.31 330.562 64.97L336.512 64.12L337.532 67.35C336.852 69.5033 336.342 71.94 336.002 74.66C335.775 77.38 335.662 80.0433 335.662 82.65L336.172 82.82ZM455.601 99.65L451.521 102.71C445.401 102.71 439.338 102.767 433.331 102.88C427.438 102.993 421.374 103.05 415.141 103.05H401.201C401.088 103.843 401.031 104.637 401.031 105.43C401.031 106.11 401.031 106.79 401.031 107.47C401.031 110.417 401.541 113.363 402.561 116.31C403.581 119.257 405.168 121.92 407.321 124.3C409.588 126.567 412.421 128.437 415.821 129.91C419.221 131.27 423.358 131.95 428.231 131.95C431.744 131.95 435.428 131.497 439.281 130.59C443.248 129.57 446.931 128.267 450.331 126.68L453.221 127.87V133.99L451.521 135.86C448.801 138.013 444.778 140.053 439.451 141.98C434.238 143.907 428.571 144.87 422.451 144.87C416.444 144.87 410.948 143.907 405.961 141.98C401.088 139.94 396.838 137.107 393.211 133.48C389.698 129.853 386.921 125.547 384.881 120.56C382.954 115.573 381.991 110.02 381.991 103.9C381.991 97.6667 383.011 92 385.051 86.9C387.091 81.8 389.868 77.4367 393.381 73.81C397.008 70.1833 401.201 67.35 405.961 65.31C410.834 63.27 416.048 62.25 421.601 62.25C424.548 62.25 427.834 62.6467 431.461 63.44C435.201 64.2333 438.771 65.7633 442.171 68.03C445.571 70.1833 448.631 73.3 451.351 77.38C454.071 81.3467 455.941 86.6167 456.961 93.19L455.601 99.65ZM421.771 75C416.218 75 411.741 76.7 408.341 80.1C405.054 83.3867 402.958 87.24 402.051 91.66H410.551C414.518 91.66 418.428 91.6033 422.281 91.49C426.134 91.2633 430.044 91.15 434.011 91.15C435.484 91.15 436.561 90.7533 437.241 89.96C437.921 89.0533 438.261 88.1467 438.261 87.24C438.261 83.84 436.618 80.95 433.331 78.57C430.044 76.19 426.191 75 421.771 75ZM473.763 162.89L471.043 161.02L470.703 158.64C471.95 155.807 472.913 152.747 473.593 149.46C474.273 146.287 474.613 144.077 474.613 142.83C474.613 141.017 474.16 139.26 473.253 137.56C472.347 135.747 471.893 133.593 471.893 131.1C471.893 129.74 472.347 128.55 473.253 127.53C474.273 126.51 475.463 125.66 476.823 124.98C478.297 124.3 479.827 123.79 481.413 123.45C483.113 123.11 484.7 122.94 486.173 122.94C487.647 122.94 488.837 123.28 489.743 123.96C490.65 124.64 491.33 125.433 491.783 126.34C492.35 127.247 492.69 128.21 492.803 129.23C492.917 130.25 492.973 131.157 492.973 131.95C492.973 135.01 492.35 138.24 491.103 141.64C489.857 144.927 488.327 148.043 486.513 150.99C484.7 153.937 482.83 156.487 480.903 158.64C479.09 160.793 477.503 162.21 476.143 162.89H473.763Z" fill="#2D2D2D"/>
<g filter="url(#filter0_d_170_1031)">
<rect x="4" y="183" width="804" height="205" rx="25" fill="#E1D883"/>
<rect x="4.5" y="183.5" width="803" height="204" rx="24.5" stroke="black"/>
</g>
<path d="M164.46 342.93C163.737 342.93 162.548 342.878 160.895 342.775C159.242 342.672 157.537 342.568 155.78 342.465C154.023 342.362 152.318 342.258 150.665 342.155C149.012 342.052 147.823 342 147.1 342H137.955C137.232 342 136.043 342.052 134.39 342.155C132.737 342.258 131.032 342.362 129.275 342.465C127.518 342.568 125.813 342.672 124.16 342.775C122.507 342.878 121.318 342.93 120.595 342.93L120.285 342.31L120.75 336.42L121.37 335.8C123.023 335.8 124.573 335.748 126.02 335.645C127.467 335.438 128.707 334.973 129.74 334.25C130.67 333.527 131.393 332.597 131.91 331.46C132.427 330.323 132.943 328.308 133.46 325.415C133.563 324.692 133.615 323.865 133.615 322.935C133.718 321.902 133.77 320.662 133.77 319.215C133.873 317.768 133.925 316.012 133.925 313.945C133.925 311.878 133.925 309.295 133.925 306.195V293.795H88.045V303.095C88.045 306.815 88.045 309.863 88.045 312.24C88.045 314.513 88.045 316.425 88.045 317.975C88.1483 319.525 88.2 320.868 88.2 322.005C88.3033 323.038 88.4067 324.175 88.51 325.415C88.7167 328.308 89.1817 330.323 89.905 331.46C90.6283 332.597 91.4033 333.527 92.23 334.25C93.16 334.973 94.3483 335.438 95.795 335.645C97.345 335.748 98.9467 335.8 100.6 335.8L101.22 336.42L101.685 342.31L101.375 342.93C100.652 342.93 99.4633 342.878 97.81 342.775C96.1567 342.672 94.4517 342.568 92.695 342.465C90.9383 342.362 89.2333 342.258 87.58 342.155C85.9267 342.052 84.7383 342 84.015 342H74.87C74.1467 342 72.9583 342.052 71.305 342.155C69.6517 342.258 67.9467 342.362 66.19 342.465C64.4333 342.568 62.7283 342.672 61.075 342.775C59.4217 342.878 58.2333 342.93 57.51 342.93L57.2 342.31L57.665 336.42L58.44 335.8C60.0933 335.8 61.6433 335.748 63.09 335.645C64.5367 335.438 65.725 334.973 66.655 334.25C67.4817 333.527 68.2567 332.597 68.98 331.46C69.8067 330.323 70.3233 328.308 70.53 325.415C70.53 324.692 70.53 323.865 70.53 322.935C70.6333 321.902 70.685 320.662 70.685 319.215C70.7883 317.768 70.84 316.012 70.84 313.945C70.84 311.878 70.84 309.295 70.84 306.195V280.93C70.84 277.313 70.84 274.265 70.84 271.785C70.84 269.305 70.7883 267.187 70.685 265.43C70.685 263.673 70.6333 262.175 70.53 260.935C70.53 259.695 70.4783 258.455 70.375 257.215C70.1683 254.528 69.7033 252.565 68.98 251.325C68.2567 250.085 67.4817 249.103 66.655 248.38C65.725 247.657 64.5367 247.243 63.09 247.14C61.6433 246.933 60.0933 246.83 58.44 246.83L57.665 246.21L57.2 240.32L57.51 239.7C58.2333 239.7 59.4217 239.752 61.075 239.855C62.7283 239.958 64.4333 240.062 66.19 240.165C67.9467 240.268 69.6517 240.372 71.305 240.475C72.9583 240.578 74.1467 240.63 74.87 240.63H84.015C84.7383 240.63 85.9267 240.578 87.58 240.475C89.2333 240.372 90.9383 240.268 92.695 240.165C94.4517 240.062 96.1567 239.958 97.81 239.855C99.4633 239.752 100.652 239.7 101.375 239.7L101.685 240.32L101.22 246.21L100.6 246.83C99.1533 246.83 97.6033 246.933 95.95 247.14C94.4 247.243 93.16 247.657 92.23 248.38C91.4033 249.103 90.5767 250.033 89.75 251.17C89.0267 252.307 88.6133 254.322 88.51 257.215C88.4067 258.662 88.3033 260.005 88.2 261.245C88.2 262.485 88.1483 263.932 88.045 265.585C88.045 267.238 88.045 269.253 88.045 271.63C88.045 274.007 88.045 277.055 88.045 280.775V282.325H133.925V280.93C133.925 277.313 133.925 274.265 133.925 271.785C133.925 269.305 133.873 267.187 133.77 265.43C133.77 263.673 133.718 262.175 133.615 260.935C133.615 259.695 133.563 258.455 133.46 257.215C133.253 254.322 132.788 252.307 132.065 251.17C131.342 250.033 130.567 249.103 129.74 248.38C128.81 247.657 127.57 247.243 126.02 247.14C124.573 246.933 123.023 246.83 121.37 246.83L120.75 246.21L120.285 240.32L120.595 239.7C121.318 239.7 122.507 239.752 124.16 239.855C125.813 239.958 127.518 240.062 129.275 240.165C131.032 240.268 132.737 240.372 134.39 240.475C136.043 240.578 137.232 240.63 137.955 240.63H147.1C147.823 240.63 149.012 240.578 150.665 240.475C152.318 240.372 154.023 240.268 155.78 240.165C157.537 240.062 159.242 239.958 160.895 239.855C162.548 239.752 163.737 239.7 164.46 239.7L164.77 240.32L164.305 246.21L163.53 246.83C161.877 246.83 160.275 246.933 158.725 247.14C157.278 247.243 156.142 247.657 155.315 248.38C154.488 249.103 153.713 250.033 152.99 251.17C152.37 252.307 151.853 254.322 151.44 257.215C151.337 258.662 151.233 260.005 151.13 261.245C151.13 262.485 151.13 263.932 151.13 265.585C151.13 267.238 151.13 269.253 151.13 271.63C151.13 274.007 151.13 277.055 151.13 280.775V303.095C151.13 306.815 151.13 309.863 151.13 312.24C151.13 314.513 151.13 316.425 151.13 317.975C151.13 319.525 151.13 320.868 151.13 322.005C151.233 323.038 151.337 324.175 151.44 325.415C151.647 328.308 152.112 330.323 152.835 331.46C153.662 332.597 154.488 333.527 155.315 334.25C156.245 334.973 157.433 335.438 158.88 335.645C160.327 335.748 161.877 335.8 163.53 335.8L164.305 336.42L164.77 342.31L164.46 342.93ZM221.874 240.63C223.321 240.63 225.439 240.63 228.229 240.63C231.123 240.527 234.068 240.423 237.064 240.32C240.061 240.217 242.748 240.165 245.124 240.165C247.501 240.062 248.948 240.01 249.464 240.01L250.394 241.56L249.619 261.555H242.644L242.024 260.935C241.818 258.972 241.508 257.422 241.094 256.285C240.784 255.148 239.854 254.322 238.304 253.805C236.754 253.288 234.326 252.978 231.019 252.875C227.816 252.772 223.321 252.72 217.534 252.72H208.699L208.544 254.115C208.441 255.562 208.338 256.905 208.234 258.145C208.234 259.385 208.183 260.832 208.079 262.485C208.079 264.138 208.079 266.153 208.079 268.53C208.079 270.907 208.079 273.955 208.079 277.675V282.945C210.559 282.842 212.936 282.842 215.209 282.945C217.483 282.945 219.601 282.893 221.564 282.79C223.528 282.687 225.181 282.532 226.524 282.325C227.971 282.015 229.004 281.55 229.624 280.93C230.658 279.897 231.174 278.45 231.174 276.59L231.949 275.815L237.684 275.505L238.304 275.815C238.098 278.192 237.891 280.258 237.684 282.015C237.581 283.772 237.529 285.787 237.529 288.06C237.529 290.54 237.581 292.865 237.684 295.035C237.891 297.102 238.098 299.375 238.304 301.855L237.684 302.165L231.794 301.855L231.174 301.39C231.174 298.807 230.709 296.895 229.779 295.655C228.953 294.518 226.576 293.898 222.649 293.795C218.826 293.588 214.538 293.485 209.784 293.485H208.079V306.195C208.079 309.192 208.079 311.672 208.079 313.635C208.183 315.598 208.234 317.303 208.234 318.75C208.338 320.093 208.441 321.385 208.544 322.625C208.648 323.865 208.751 325.312 208.854 326.965C208.958 328.928 209.991 329.91 211.954 329.91H218.929C224.819 329.91 229.418 329.807 232.724 329.6C236.134 329.393 238.718 328.928 240.474 328.205C242.231 327.378 243.471 326.242 244.194 324.795C245.021 323.348 245.744 321.385 246.364 318.905L246.984 318.285H254.269L251.324 341.07L250.084 342.62C249.568 342.62 248.276 342.568 246.209 342.465C244.246 342.465 242.024 342.413 239.544 342.31C237.064 342.207 234.584 342.103 232.104 342C229.624 342 227.661 342 226.214 342H194.904C194.181 342 192.993 342.052 191.339 342.155C189.686 342.258 187.981 342.362 186.224 342.465C184.468 342.568 182.763 342.672 181.109 342.775C179.456 342.878 178.268 342.93 177.544 342.93L177.234 342.31L177.699 336.42L178.474 335.8C180.128 335.8 181.678 335.748 183.124 335.645C184.571 335.438 185.759 334.973 186.689 334.25C187.516 333.527 188.291 332.597 189.014 331.46C189.841 330.323 190.358 328.308 190.564 325.415C190.564 324.692 190.564 323.865 190.564 322.935C190.668 321.902 190.719 320.662 190.719 319.215C190.823 317.768 190.874 316.012 190.874 313.945C190.874 311.878 190.874 309.295 190.874 306.195V280.93C190.874 277.313 190.874 274.265 190.874 271.785C190.874 269.305 190.874 267.187 190.874 265.43C190.874 263.673 190.823 262.175 190.719 260.935C190.719 259.695 190.668 258.455 190.564 257.215C190.358 254.425 189.841 252.41 189.014 251.17C188.291 249.93 187.516 249 186.689 248.38C185.759 247.553 184.571 247.088 183.124 246.985C181.678 246.882 180.128 246.83 178.474 246.83L177.699 246.21L177.234 240.32L177.544 239.7C178.268 239.7 179.456 239.752 181.109 239.855C182.763 239.958 184.519 240.062 186.379 240.165C188.343 240.268 190.203 240.372 191.959 240.475C193.819 240.578 195.318 240.63 196.454 240.63H221.874ZM320.019 238.925L346.679 309.295C347.609 311.878 348.436 314.048 349.159 315.805C349.883 317.562 350.451 319.06 350.864 320.3C351.381 321.54 351.794 322.573 352.104 323.4C352.518 324.123 352.879 324.795 353.189 325.415C354.429 327.998 355.669 330.013 356.909 331.46C358.253 332.803 359.544 333.837 360.784 334.56C362.128 335.18 363.471 335.542 364.814 335.645C366.158 335.748 367.501 335.8 368.844 335.8L369.619 336.42L370.084 342.31L369.774 342.93C369.051 342.93 367.966 342.878 366.519 342.775C365.073 342.672 363.574 342.568 362.024 342.465C360.474 342.362 358.976 342.258 357.529 342.155C356.186 342.052 355.153 342 354.429 342H343.114C342.391 342 341.203 342.052 339.549 342.155C337.896 342.258 336.139 342.362 334.279 342.465C332.523 342.568 330.818 342.672 329.164 342.775C327.511 342.878 326.323 342.93 325.599 342.93L325.289 342.31L325.754 336.42L326.374 335.8C329.061 335.8 331.076 335.49 332.419 334.87C333.866 334.147 334.589 332.287 334.589 329.29C334.589 327.637 334.279 325.312 333.659 322.315C333.143 319.215 331.851 315.392 329.784 310.845L326.529 303.405H299.404L296.304 310.845C294.444 315.392 293.049 319.267 292.119 322.47C291.189 325.673 290.724 327.947 290.724 329.29C290.724 331.77 291.241 333.475 292.274 334.405C293.308 335.335 295.168 335.8 297.854 335.8L298.629 336.42L299.094 342.31L298.784 342.93C298.061 342.93 296.924 342.878 295.374 342.775C293.824 342.672 292.171 342.568 290.414 342.465C288.761 342.362 287.159 342.258 285.609 342.155C284.059 342.052 282.923 342 282.199 342H273.054C272.331 342 271.246 342.052 269.799 342.155C268.353 342.258 266.854 342.362 265.304 342.465C263.754 342.568 262.256 342.672 260.809 342.775C259.466 342.878 258.433 342.93 257.709 342.93L257.554 342.31L257.864 336.42L258.639 335.8C259.983 335.8 261.326 335.697 262.669 335.49C264.013 335.283 265.356 334.818 266.699 334.095C268.043 333.372 269.334 332.39 270.574 331.15C271.918 329.807 273.261 328.102 274.604 326.035C274.914 325.415 275.379 324.485 275.999 323.245C276.619 321.902 277.601 319.577 278.944 316.27C280.288 312.963 282.148 308.262 284.524 302.165C286.901 296.068 290.053 287.957 293.979 277.83L307.309 243.575L318.314 238.925H320.019ZM302.039 292.09H322.344L312.424 264.655L302.039 292.09ZM418.943 342.93C418.117 342.827 416.928 342.723 415.378 342.62C413.932 342.517 412.33 342.413 410.573 342.31C408.92 342.207 407.267 342.103 405.613 342C404.063 342 402.72 342 401.583 342H392.438C391.198 342 389.752 342 388.098 342C386.445 342.103 384.792 342.207 383.138 342.31C381.485 342.413 379.883 342.517 378.333 342.62C376.887 342.723 375.802 342.827 375.078 342.93L374.768 342.31L375.233 336.42L376.008 335.8C379.935 335.8 382.622 335.335 384.068 334.405C386.238 332.958 387.582 329.962 388.098 325.415C388.202 323.658 388.253 320.972 388.253 317.355C388.357 313.635 388.408 309.915 388.408 306.195V272.095C388.408 268.478 388.357 265.637 388.253 263.57C388.15 261.4 387.995 259.282 387.788 257.215C387.375 254.425 386.91 252.41 386.393 251.17C385.98 249.93 385.308 248.948 384.378 248.225C383.552 247.708 382.518 247.347 381.278 247.14C380.142 246.933 378.385 246.83 376.008 246.83L375.233 246.21L374.768 240.32L375.078 239.7C377.765 240.01 380.4 240.268 382.983 240.475C385.67 240.578 387.788 240.63 389.338 240.63H401.118C403.495 240.63 406.182 240.578 409.178 240.475C412.278 240.372 414.965 240.32 417.238 240.32C429.535 240.32 438.835 242.645 445.138 247.295C451.442 251.842 454.593 258.662 454.593 267.755C454.593 274.265 452.682 280.207 448.858 285.58C445.138 290.85 439.558 295.448 432.118 299.375C435.632 304.645 438.577 308.933 440.953 312.24C443.433 315.547 445.552 318.182 447.308 320.145C449.685 322.935 451.907 325.26 453.973 327.12C456.04 328.98 458.055 330.53 460.018 331.77C462.085 333.01 464.203 333.94 466.373 334.56C468.543 335.18 470.972 335.593 473.658 335.8L474.588 336.42L474.898 342.31L474.588 342.93C470.662 343.137 467.252 343.292 464.358 343.395C461.465 343.602 459.347 343.705 458.003 343.705C452.527 343.705 447.618 342.207 443.278 339.21C439.042 336.11 434.495 330.892 429.638 323.555C428.502 321.902 427.262 320.042 425.918 317.975C424.678 315.908 423.387 313.893 422.043 311.93C420.803 309.863 419.615 307.9 418.478 306.04C417.342 304.18 416.412 302.578 415.688 301.235H405.613C405.613 304.748 405.613 307.797 405.613 310.38C405.613 312.86 405.613 315.03 405.613 316.89C405.717 318.75 405.82 320.352 405.923 321.695C406.027 323.038 406.13 324.278 406.233 325.415C406.647 330.168 407.783 333.165 409.643 334.405C410.367 334.922 411.297 335.283 412.433 335.49C413.57 335.697 415.482 335.8 418.168 335.8L418.788 336.42L419.253 342.31L418.943 342.93ZM413.518 289.765C421.062 289.765 426.952 287.957 431.188 284.34C435.528 280.723 437.698 275.712 437.698 269.305C437.698 263.518 435.787 259.333 431.963 256.75C428.14 254.063 422.043 252.72 413.673 252.72H406.388C406.078 256.853 405.872 260.057 405.768 262.33C405.665 264.603 405.613 266.773 405.613 268.84V284.03C405.613 286.2 405.872 287.698 406.388 288.525C406.905 289.352 407.887 289.765 409.333 289.765H413.518ZM545.233 359.98C543.993 363.08 542.34 365.87 540.273 368.35C538.31 370.933 536.037 373.155 533.453 375.015C530.87 376.875 528.132 378.373 525.238 379.51C522.345 380.75 519.4 381.577 516.403 381.99C515.577 382.197 514.595 382.3 513.458 382.3C512.425 382.3 510.875 382.3 508.808 382.3L507.723 381.99L507.258 374.085L507.878 373.31H510.048C511.288 373.31 512.632 373.155 514.078 372.845C515.525 372.638 516.92 372.173 518.263 371.45C521.26 370.003 523.998 367.937 526.478 365.25C529.062 362.563 530.818 359.98 531.748 357.5L536.088 345.875L523.688 317.51C523.172 316.373 522.345 314.358 521.208 311.465C520.072 308.572 518.78 305.42 517.333 302.01C515.887 298.497 514.337 295.035 512.683 291.625C511.133 288.215 509.687 285.373 508.343 283.1C507.31 281.447 506.122 280.155 504.778 279.225C503.538 278.295 501.833 277.727 499.663 277.52L498.733 276.745V271.475L499.353 270.855C501.11 271.062 502.97 271.268 504.933 271.475C506.897 271.682 508.705 271.785 510.358 271.785H522.603C524.153 271.785 526.013 271.682 528.183 271.475C530.457 271.268 532.523 271.062 534.383 270.855L535.003 271.475V276.435L534.383 277.055C532.42 277.262 530.715 277.882 529.268 278.915C527.925 279.845 527.253 281.24 527.253 283.1C527.253 284.34 527.667 286.407 528.493 289.3C529.423 292.09 530.457 295.087 531.593 298.29C532.833 301.493 533.97 304.49 535.003 307.28C536.14 309.967 536.863 311.775 537.173 312.705L543.838 331.46L551.588 312.705C552.312 311.052 553.19 308.985 554.223 306.505C555.257 303.922 556.238 301.235 557.168 298.445C558.202 295.655 559.08 292.917 559.803 290.23C560.527 287.543 560.888 285.167 560.888 283.1C560.888 280.827 560.113 279.328 558.563 278.605C557.013 277.778 555.36 277.262 553.603 277.055L552.983 276.435V271.475L553.603 270.855C555.567 271.268 557.427 271.527 559.183 271.63C560.94 271.733 562.593 271.785 564.143 271.785H576.698C578.455 271.785 580.16 271.682 581.813 271.475C583.57 271.268 585.43 271.062 587.393 270.855L588.013 271.475V276.745L587.083 277.52C585.327 277.727 583.777 278.243 582.433 279.07C581.193 279.897 580.005 281.24 578.868 283.1C577.318 285.58 575.562 288.783 573.598 292.71C571.738 296.533 569.878 300.408 568.018 304.335C566.262 308.262 564.66 311.827 563.213 315.03C561.767 318.233 560.837 320.455 560.423 321.695L545.233 359.98ZM629.941 268.375C636.037 268.375 641.462 269.46 646.216 271.63C650.969 273.697 654.947 276.538 658.151 280.155C661.457 283.668 663.937 287.75 665.591 292.4C667.347 297.05 668.226 301.855 668.226 306.815C668.226 311.568 667.451 316.167 665.901 320.61C664.351 325.053 661.974 328.98 658.771 332.39C655.567 335.8 651.589 338.538 646.836 340.605C642.082 342.672 636.554 343.705 630.251 343.705C623.741 343.705 618.057 342.62 613.201 340.45C608.344 338.28 604.314 335.438 601.111 331.925C598.011 328.412 595.686 324.433 594.136 319.99C592.586 315.443 591.811 310.793 591.811 306.04C591.811 300.977 592.689 296.172 594.446 291.625C596.202 287.078 598.682 283.1 601.886 279.69C605.192 276.177 609.171 273.438 613.821 271.475C618.574 269.408 623.947 268.375 629.941 268.375ZM630.096 333.01C633.299 333.01 636.089 332.287 638.466 330.84C640.946 329.29 643.012 327.327 644.666 324.95C646.319 322.47 647.507 319.68 648.231 316.58C649.057 313.377 649.471 310.122 649.471 306.815C649.471 303.612 649.006 300.408 648.076 297.205C647.249 293.898 645.957 290.953 644.201 288.37C642.547 285.787 640.481 283.668 638.001 282.015C635.521 280.362 632.679 279.535 629.476 279.535C626.169 279.535 623.276 280.31 620.796 281.86C618.419 283.41 616.456 285.425 614.906 287.905C613.356 290.385 612.167 293.175 611.341 296.275C610.617 299.375 610.256 302.527 610.256 305.73C610.256 309.037 610.669 312.292 611.496 315.495C612.426 318.698 613.717 321.643 615.371 324.33C617.127 326.913 619.246 329.032 621.726 330.685C624.206 332.235 626.996 333.01 630.096 333.01ZM739.29 328.67C736.5 333.113 733.038 336.73 728.905 339.52C724.771 342.31 719.553 343.705 713.25 343.705C710.356 343.705 707.515 343.343 704.725 342.62C702.038 341.897 699.558 340.76 697.285 339.21C695.115 337.66 693.203 335.645 691.55 333.165C689.896 330.582 688.708 327.482 687.985 323.865C687.778 322.935 687.571 321.902 687.365 320.765C687.261 319.628 687.158 318.182 687.055 316.425C687.055 314.565 687.003 312.343 686.9 309.76C686.9 307.073 686.9 303.767 686.9 299.84V285.89C686.9 284.753 686.641 283.617 686.125 282.48C685.608 281.343 685.195 280.62 684.885 280.31C683.851 279.07 682.56 278.347 681.01 278.14C679.46 277.933 677.858 277.83 676.205 277.83L675.74 277.21V271.94L676.205 271.475H683.8C686.176 271.475 688.708 271.475 691.395 271.475C694.081 271.372 696.458 271.165 698.525 270.855L703.95 270.08L704.88 273.025C704.673 273.438 704.518 274.213 704.415 275.35C704.311 276.383 704.208 277.52 704.105 278.76C704.001 280 703.95 281.188 703.95 282.325C703.95 283.462 703.95 284.34 703.95 284.96C703.95 286.303 703.898 287.957 703.795 289.92C703.795 291.78 703.743 293.743 703.64 295.81C703.64 297.773 703.588 299.685 703.485 301.545C703.485 303.405 703.485 304.955 703.485 306.195C703.485 308.882 703.588 311.62 703.795 314.41C704.001 317.097 704.415 319.577 705.035 321.85C706.068 325.467 707.618 328.153 709.685 329.91C711.855 331.563 714.851 332.39 718.675 332.39C721.775 332.39 724.513 331.873 726.89 330.84C729.37 329.807 731.488 328.567 733.245 327.12C735.001 325.673 736.448 324.123 737.585 322.47C738.721 320.713 739.445 319.163 739.755 317.82V302.32C739.755 297.567 739.651 293.898 739.445 291.315C739.341 288.732 739.186 286.717 738.98 285.27C738.773 283.927 738.463 282.842 738.05 282.015C737.74 281.188 737.43 280.62 737.12 280.31C735.983 279.07 734.536 278.347 732.78 278.14C731.023 277.933 729.628 277.83 728.595 277.83L727.975 277.21V271.94L728.595 271.475H731.385C732.418 271.475 733.761 271.475 735.415 271.475C737.171 271.475 738.98 271.475 740.84 271.475C742.7 271.372 744.508 271.32 746.265 271.32C748.021 271.217 749.52 271.062 750.76 270.855L756.185 270.08L757.115 273.025C756.598 276.022 756.236 279.948 756.03 284.805C755.926 287.388 755.823 289.507 755.72 291.16C755.72 292.71 755.72 294.002 755.72 295.035C755.72 296.068 755.72 296.895 755.72 297.515C755.72 298.032 755.72 298.548 755.72 299.065V311.775C755.72 317.458 755.875 322.47 756.185 326.81C756.391 328.773 756.65 330.375 756.96 331.615C757.27 332.752 757.838 333.682 758.665 334.405C759.595 335.232 760.68 335.748 761.92 335.955C763.16 336.058 764.658 336.11 766.415 336.11L767.035 336.73L767.345 342L767.035 342.465C765.071 342.258 763.16 342.103 761.3 342C759.44 342 757.27 342 754.79 342C752.31 342 749.675 342 746.885 342C744.095 342.103 741.408 342.258 738.825 342.465L737.895 339.365C738.205 338.228 738.515 336.73 738.825 334.87C739.238 332.907 739.548 330.943 739.755 328.98L739.29 328.67Z" fill="#2D2D2D"/>
<path d="M632.5 143.65L630.94 143.13L623.27 121.94C622.23 119.167 621.277 116.567 620.41 114.14C619.63 111.713 618.677 109.113 617.55 106.34C616.943 108.073 616.337 109.807 615.73 111.54C615.123 113.273 614.56 114.877 614.04 116.35C613.52 117.823 613.043 119.123 612.61 120.25C612.263 121.377 612.047 122.113 611.96 122.46L605.33 143L591.94 143.65L590.64 143L581.54 122.2C581.107 121.333 580.5 120.033 579.72 118.3C579.027 116.48 578.203 114.487 577.25 112.32C576.383 110.153 575.43 107.857 574.39 105.43C573.35 103.003 572.31 100.707 571.27 98.54C570.403 96.72 569.537 95.0733 568.67 93.6C567.803 92.2133 566.807 91.13 565.68 90.35C564.64 89.57 563.21 89.0933 561.39 88.92L560.61 88.27V83.85L561.13 83.33C562.603 83.5033 564.163 83.6767 565.81 83.85C567.457 84.0233 568.973 84.11 570.36 84.11H580.63C581.93 84.11 583.49 84.0233 585.31 83.85C587.217 83.6767 588.95 83.5033 590.51 83.33L591.03 83.85V88.01L590.51 88.53C588.863 88.7033 587.433 89.2233 586.22 90.09C585.093 90.87 584.53 92.04 584.53 93.6C584.53 94.64 584.877 96.4167 585.57 98.93C586.35 101.443 587.217 104.087 588.17 106.86C589.123 109.633 590.033 112.277 590.9 114.79C591.853 117.217 592.503 118.863 592.85 119.73L598.57 133.38L603.51 119.73C604.377 117.39 605.2 114.92 605.98 112.32C606.76 109.72 607.41 107.25 607.93 104.91C608.537 102.483 609.013 100.273 609.36 98.28C609.707 96.2867 609.88 94.7267 609.88 93.6C609.88 92.6467 609.62 91.8667 609.1 91.26C608.58 90.6533 607.973 90.1767 607.28 89.83C606.587 89.4833 605.85 89.2667 605.07 89.18C604.377 89.0067 603.77 88.92 603.25 88.92L602.47 88.27V83.85L602.99 83.33C604.463 83.5033 606.023 83.6767 607.67 83.85C609.317 84.0233 610.833 84.11 612.22 84.11H622.49C623.79 84.11 625.35 84.0233 627.17 83.85C629.077 83.6767 630.81 83.5033 632.37 83.33L632.89 83.85V88.01L632.37 88.53C630.723 88.7033 629.293 89.2233 628.08 90.09C626.953 90.87 626.39 92.04 626.39 93.6C626.39 94.64 626.737 96.4167 627.43 98.93C628.123 101.443 628.903 104.087 629.77 106.86C630.637 109.633 631.46 112.277 632.24 114.79C633.107 117.217 633.713 118.863 634.06 119.73L639.13 133.38L644.33 119.73C644.937 118.17 645.673 116.263 646.54 114.01C647.493 111.757 648.36 109.417 649.14 106.99C650.007 104.563 650.7 102.18 651.22 99.84C651.827 97.5 652.13 95.42 652.13 93.6C652.13 91.6933 651.48 90.4367 650.18 89.83C648.88 89.1367 647.493 88.7033 646.02 88.53L645.5 88.01V83.85L646.02 83.33C647.667 83.6767 649.227 83.8933 650.7 83.98C652.173 84.0667 653.56 84.11 654.86 84.11H665.39C666.863 84.11 668.293 84.0233 669.68 83.85C671.153 83.6767 672.713 83.5033 674.36 83.33L674.88 83.85V88.27L674.1 88.92C672.627 89.0933 671.327 89.57 670.2 90.35C669.16 91.0433 668.163 92.1267 667.21 93.6C665.737 95.94 664.177 98.7567 662.53 102.05C660.97 105.343 659.453 108.637 657.98 111.93C656.593 115.137 655.337 118.083 654.21 120.77C653.17 123.457 652.477 125.32 652.13 126.36L645.89 143L632.5 143.65ZM734.45 109.85L731.33 112.19C726.65 112.19 722.014 112.233 717.42 112.32C712.914 112.407 708.277 112.45 703.51 112.45H692.85C692.764 113.057 692.72 113.663 692.72 114.27C692.72 114.79 692.72 115.31 692.72 115.83C692.72 118.083 693.11 120.337 693.89 122.59C694.67 124.843 695.884 126.88 697.53 128.7C699.264 130.433 701.43 131.863 704.03 132.99C706.63 134.03 709.794 134.55 713.52 134.55C716.207 134.55 719.024 134.203 721.97 133.51C725.004 132.73 727.82 131.733 730.42 130.52L732.63 131.43V136.11L731.33 137.54C729.25 139.187 726.174 140.747 722.1 142.22C718.114 143.693 713.78 144.43 709.1 144.43C704.507 144.43 700.304 143.693 696.49 142.22C692.764 140.66 689.514 138.493 686.74 135.72C684.054 132.947 681.93 129.653 680.37 125.84C678.897 122.027 678.16 117.78 678.16 113.1C678.16 108.333 678.94 104 680.5 100.1C682.06 96.2 684.184 92.8633 686.87 90.09C689.644 87.3167 692.85 85.15 696.49 83.59C700.217 82.03 704.204 81.25 708.45 81.25C710.704 81.25 713.217 81.5533 715.99 82.16C718.85 82.7667 721.58 83.9367 724.18 85.67C726.78 87.3167 729.12 89.7 731.2 92.82C733.28 95.8533 734.71 99.8833 735.49 104.91L734.45 109.85ZM708.58 91C704.334 91 700.91 92.3 698.31 94.9C695.797 97.4133 694.194 100.36 693.5 103.74H700C703.034 103.74 706.024 103.697 708.97 103.61C711.917 103.437 714.907 103.35 717.94 103.35C719.067 103.35 719.89 103.047 720.41 102.44C720.93 101.747 721.19 101.053 721.19 100.36C721.19 97.76 719.934 95.55 717.42 93.73C714.907 91.91 711.96 91 708.58 91Z" fill="#2D2D2D"/>
<defs>
<filter id="filter0_d_170_1031" x="0" y="183" width="812" height="213" filterUnits="userSpaceOnUse" color-interpolation-filters="sRGB">
<feFlood flood-opacity="0" result="BackgroundImageFix"/>
<feColorMatrix in="SourceAlpha" type="matrix" values="0 0 0 0 0 0 0 0 0 0 0 0 0 0 0 0 0 0 127 0" result="hardAlpha"/>
<feOffset dy="4"/>
<feGaussianBlur stdDeviation="2"/>
<feComposite in2="hardAlpha" operator="out"/>
<feColorMatrix type="matrix" values="0 0 0 0 0 0 0 0 0 0 0 0 0 0 0 0 0 0 0.25 0"/>
<feBlend mode="normal" in2="BackgroundImageFix" result="effect1_dropShadow_170_1031"/>
<feBlend mode="normal" in="SourceGraphic" in2="effect1_dropShadow_170_1031" result="shape"/>
</filter>
</defs>
</svg>
